<?xml version="1.0" encoding="UTF-8"?><svg xmlns="http://www.w3.org/2000/svg" xmlns:xlink="http://www.w3.org/1999/xlink" viewBox="0 0 100 100"><defs><style>.c{fill:url(#b);}.d{fill:none;stroke:#3d7229;stroke-linecap:round;stroke-linejoin:round;stroke-width:4px;}.e{isolation:isolate;}.f{fill:#fff;mix-blend-mode:overlay;opacity:.3;}</style><linearGradient id="b" x1="49.4" y1="8.64" x2="49.4" y2="82.81" gradientTransform="translate(.6 -.25)" gradientUnits="userSpaceOnUse"><stop offset="0" stop-color="#8cb239"/><stop offset="1" stop-color="#73bd5a"/></linearGradient></defs><g class="e"><g id="a"><g><path class="c" d="M53.29,9.78c-1.79-1.86-4.78-1.86-6.58,0-24.79,25.69-28.77,41.82-24.05,53.66,4.84,11.98,19.16,19.29,27.34,19.12,8.19,.17,22.5-7.14,27.34-19.12,4.72-11.84,.73-27.97-24.05-53.66Z"/><path class="f" d="M46.62,80.26c-17.67-6.48-26.46-29.02-12.71-52.43-16.27,18.04-18.79,45.5,12.71,52.43Z"/><path class="d" d="M53.29,9.78c-1.79-1.86-4.78-1.86-6.58,0-24.79,25.69-28.77,41.82-24.05,53.66,4.84,11.98,19.16,19.29,27.34,19.12,8.19,.17,22.5-7.14,27.34-19.12,4.72-11.84,.73-27.97-24.05-53.66Z"/><line class="d" x1="50" y1="92.18" x2="50" y2="33.39"/><path class="d" d="M65.4,59.32c-6.76,1.36-12.04,4.92-15.25,9.17"/><path class="d" d="M36.77,51.46c5.76,1.16,10.27,4.19,13,7.82"/><path class="d" d="M58.41,41.96c-3.66,.73-6.52,2.66-8.26,4.97"/></g></g></g></svg>